<?xml version="1.0" standalone="no"?><svg xmlns="http://www.w3.org/2000/svg" viewBox="0 0 1440 320"><path fill="#1d63ff" fill-opacity="1" d="M0,96L17.1,90.7C34.3,85,69,75,103,64C137.1,53,171,43,206,37.3C240,32,274,32,309,58.7C342.9,85,377,139,411,154.7C445.7,171,480,149,514,122.7C548.6,96,583,64,617,58.7C651.4,53,686,75,720,80C754.3,85,789,75,823,58.7C857.1,43,891,21,926,32C960,43,994,85,1029,101.3C1062.9,117,1097,107,1131,106.7C1165.7,107,1200,117,1234,122.7C1268.6,128,1303,128,1337,122.7C1371.4,117,1406,107,1423,101.3L1440,96L1440,320L1422.9,320C1405.7,320,1371,320,1337,320C1302.9,320,1269,320,1234,320C1200,320,1166,320,1131,320C1097.1,320,1063,320,1029,320C994.3,320,960,320,926,320C891.4,320,857,320,823,320C788.6,320,754,320,720,320C685.7,320,651,320,617,320C582.9,320,549,320,514,320C480,320,446,320,411,320C377.1,320,343,320,309,320C274.3,320,240,320,206,320C171.4,320,137,320,103,320C68.6,320,34,320,17,320L0,320Z"></path></svg>