<?xml version="1.0" standalone="no"?><svg xmlns="http://www.w3.org/2000/svg" viewBox="0 0 1440 320"><path fill="#fff" fill-opacity="1" d="M0,128L17.1,112C34.3,96,69,64,103,64C137.1,64,171,96,206,101.3C240,107,274,85,309,106.7C342.9,128,377,192,411,224C445.7,256,480,256,514,250.7C548.6,245,583,235,617,229.3C651.4,224,686,224,720,234.7C754.3,245,789,267,823,245.3C857.1,224,891,160,926,133.3C960,107,994,117,1029,117.3C1062.9,117,1097,107,1131,117.3C1165.7,128,1200,160,1234,192C1268.6,224,1303,256,1337,261.3C1371.4,267,1406,245,1423,234.7L1440,224L1440,320L1422.9,320C1405.7,320,1371,320,1337,320C1302.9,320,1269,320,1234,320C1200,320,1166,320,1131,320C1097.1,320,1063,320,1029,320C994.3,320,960,320,926,320C891.4,320,857,320,823,320C788.6,320,754,320,720,320C685.7,320,651,320,617,320C582.9,320,549,320,514,320C480,320,446,320,411,320C377.1,320,343,320,309,320C274.3,320,240,320,206,320C171.4,320,137,320,103,320C68.6,320,34,320,17,320L0,320Z"></path></svg>